<?xml version="1.0" encoding="utf-8"?>
<!-- Generator: Adobe Illustrator 26.5.0, SVG Export Plug-In . SVG Version: 6.00 Build 0)  -->
<svg version="1.1" xmlns="http://www.w3.org/2000/svg" xmlns:xlink="http://www.w3.org/1999/xlink" x="0px" y="0px"
	 viewBox="0 0 430 130" style="enable-background:new 0 0 430 130;" xml:space="preserve">
<style type="text/css">
	.st0{fill:none;}
	.st1{fill:#FADA3C;}
	.st2{fill:url(#SVGID_1_);}
	.st3{clip-path:url(#SVGID_00000050657550114268656270000016162762435448685959_);}
	.st4{fill:#FFCC33;}
	.st5{fill:#2057C6;}
	.st6{fill:#FFFFFF;stroke:#2057C6;stroke-width:10;stroke-miterlimit:10;}
	.st7{fill:none;stroke:#2057C6;stroke-width:12;stroke-linecap:round;stroke-miterlimit:10;}
	.st8{fill:#FFFFFF;}
	.st9{fill:none;stroke:#000000;stroke-width:4;stroke-linecap:square;stroke-miterlimit:10;}
	.st10{fill:#FFCC33;stroke:#FFFFFF;stroke-width:4;stroke-miterlimit:10;}
	.st11{fill:none;stroke:#FF0000;stroke-miterlimit:10;}
	.st12{fill:#FF0000;}
	.st13{fill:url(#SVGID_00000067925822946404035320000010168461042795394473_);}
	.st14{fill:none;stroke:#000000;stroke-width:0.25;stroke-miterlimit:10;}
	.st15{fill:#7A4FD6;}
	.st16{fill:url(#SVGID_00000022523509788855312690000007016802220221625239_);}
	.st17{display:none;}
	.st18{display:inline;opacity:0.5;fill:#FFCC33;}
	.st19{display:inline;}
	.st20{display:inline;fill:none;stroke:#000000;stroke-width:4;stroke-linecap:square;stroke-miterlimit:10;}
	.st21{fill:#FF5252;}
	.st22{display:inline;fill:none;stroke:#FFCC33;stroke-miterlimit:10;}
	.st23{display:inline;fill:#FF5252;}
</style>
<g id="Capa_1">
	<rect x="0" class="st0" width="430" height="130"/>
	<path class="st1" d="M430,0H262.6L0,0.1v128.6c21.7,0.7,43.9,1.2,66.6,1.3H97c69.8-0.4,143.7-3.9,221.2-11.6
		c38.5-3.8,75.8-8.5,111.8-13.8V0z"/>
	<linearGradient id="SVGID_1_" gradientUnits="userSpaceOnUse" x1="215" y1="0" x2="215" y2="120">
		<stop  offset="0" style="stop-color:#8F6DD6"/>
		<stop  offset="1" style="stop-color:#7A4FD6"/>
	</linearGradient>
	<path class="st2" d="M430,0H0v118.6c96.9,3.2,203.3,1,317.5-10.3c38.7-3.8,76.2-8.5,112.5-13.8V0z"/>
	<g>
		<path class="st8" d="M29.1,72.6c-0.4,0.1-1,0.2-1.8,0.3c-0.8,0.1-1.6,0.2-2.4,0.2c-0.8,0-1.5-0.1-2.1-0.2
			c-0.6-0.1-1.1-0.3-1.5-0.6c-0.4-0.3-0.7-0.7-0.9-1.3c-0.2-0.6-0.3-1.3-0.3-2.2V44.5c0-0.7,0.2-1.3,0.6-1.7c0.4-0.4,0.9-0.7,1.6-1
			c1.2-0.4,2.5-0.7,4-0.9c1.5-0.2,3-0.3,4.5-0.3c4.8,0,8.4,1,11,3c2.5,2,3.8,4.8,3.8,8.3c0,1.7-0.3,3.2-0.8,4.6
			c-0.5,1.4-1.3,2.5-2.4,3.5c-1.1,1-2.4,1.7-4,2.3c-1.6,0.5-3.5,0.8-5.6,0.8h-3.7V72.6z M31.8,56c1.5,0,2.6-0.3,3.4-1
			c0.8-0.7,1.2-1.7,1.2-3.1c0-1.3-0.4-2.3-1.2-3c-0.8-0.7-2-1.1-3.6-1.1c-0.6,0-1,0-1.4,0c-0.4,0-0.7,0.1-1.1,0.1v8H31.8z"/>
		<path class="st8" d="M62.1,73.7c-2,0-3.9-0.3-5.7-0.9c-1.8-0.6-3.3-1.4-4.6-2.6c-1.3-1.1-2.3-2.6-3.1-4.3c-0.7-1.7-1.1-3.7-1.1-6
			c0-2.3,0.4-4.2,1.1-5.9c0.7-1.6,1.7-3,2.9-4c1.2-1.1,2.6-1.8,4.2-2.3c1.6-0.5,3.2-0.7,4.8-0.7c1.8,0,3.5,0.3,5,0.8
			c1.5,0.6,2.8,1.3,3.9,2.3c1.1,1,1.9,2.1,2.5,3.5c0.6,1.3,0.9,2.8,0.9,4.4c0,1.2-0.3,2.1-1,2.7c-0.7,0.6-1.6,1-2.8,1.2l-12.8,1.9
			c0.4,1.1,1.2,2,2.3,2.6c1.2,0.6,2.5,0.9,4.1,0.9c1.4,0,2.8-0.2,4-0.5c1.3-0.4,2.3-0.8,3.1-1.3c0.6,0.3,1,0.8,1.4,1.4
			c0.4,0.6,0.6,1.3,0.6,2c0,1.6-0.7,2.7-2.2,3.5c-1.1,0.6-2.4,1-3.7,1.2C64.6,73.6,63.3,73.7,62.1,73.7z M60.7,53.4
			c-0.8,0-1.6,0.1-2.2,0.4c-0.6,0.3-1.1,0.6-1.5,1.1c-0.4,0.4-0.7,0.9-0.9,1.4c-0.2,0.5-0.3,1.1-0.3,1.6l8.9-1.4
			c-0.1-0.7-0.5-1.4-1.1-2.1C62.9,53.7,61.9,53.4,60.7,53.4z"/>
		<path class="st8" d="M86.1,64.2c0,0.9,0.3,1.5,0.9,1.9c0.6,0.4,1.4,0.6,2.4,0.6c0.5,0,1.1,0,1.6-0.1c0.6-0.1,1-0.2,1.5-0.3
			c0.3,0.4,0.6,0.8,0.8,1.3c0.2,0.5,0.3,1,0.3,1.7c0,1.3-0.5,2.4-1.5,3.2c-1,0.8-2.7,1.2-5.2,1.2c-3.1,0-5.4-0.7-7-2.1
			c-1.6-1.4-2.5-3.6-2.5-6.7V42.7c0.4-0.1,0.9-0.2,1.6-0.3c0.7-0.1,1.5-0.2,2.3-0.2c1.5,0,2.7,0.3,3.6,0.8c0.8,0.5,1.3,1.7,1.3,3.4
			v3.3h6.8c0.2,0.4,0.4,0.9,0.6,1.4c0.2,0.6,0.3,1.2,0.3,1.9c0,1.2-0.3,2.1-0.8,2.6c-0.5,0.5-1.3,0.8-2.2,0.8h-4.7V64.2z"/>
		<path class="st8" d="M119.4,65.3c0,2.6-1,4.7-3,6.2c-2,1.5-4.9,2.2-8.7,2.2c-1.5,0-2.8-0.1-4.1-0.3c-1.2-0.2-2.3-0.5-3.2-1
			c-0.9-0.4-1.6-1-2.1-1.6c-0.5-0.7-0.8-1.4-0.8-2.3c0-0.8,0.2-1.5,0.5-2.1c0.3-0.6,0.8-1,1.2-1.4c1,0.6,2.2,1,3.5,1.5
			c1.3,0.4,2.8,0.6,4.5,0.6c1.1,0,1.9-0.2,2.5-0.5c0.6-0.3,0.9-0.7,0.9-1.2c0-0.5-0.2-0.9-0.6-1.1c-0.4-0.3-1.1-0.5-2.1-0.7
			l-1.6-0.3c-3-0.6-5.3-1.5-6.7-2.8c-1.5-1.3-2.2-3.1-2.2-5.4c0-1.3,0.3-2.4,0.8-3.5c0.6-1,1.3-1.9,2.3-2.6c1-0.7,2.2-1.2,3.6-1.6
			c1.4-0.4,3-0.6,4.7-0.6c1.3,0,2.5,0.1,3.6,0.3c1.1,0.2,2.1,0.5,2.9,0.9c0.8,0.4,1.5,0.9,2,1.5c0.5,0.6,0.7,1.3,0.7,2.1
			c0,0.8-0.1,1.5-0.4,2c-0.3,0.6-0.7,1-1.1,1.4c-0.3-0.2-0.7-0.4-1.2-0.5c-0.6-0.2-1.2-0.4-1.8-0.5c-0.7-0.2-1.3-0.3-2-0.4
			c-0.7-0.1-1.3-0.2-1.8-0.2c-1.1,0-2,0.1-2.7,0.4c-0.6,0.3-0.9,0.7-0.9,1.2c0,0.4,0.2,0.7,0.5,0.9c0.3,0.2,1,0.5,2,0.7l1.6,0.4
			c3.3,0.8,5.7,1.8,7.1,3.1C118.7,61.5,119.4,63.2,119.4,65.3z"/>
		<path class="st8" d="M148.6,72.8c-0.3,0.1-0.9,0.2-1.6,0.3c-0.7,0.1-1.5,0.2-2.3,0.2c-0.8,0-1.4-0.1-2.1-0.2
			c-0.6-0.1-1.1-0.3-1.5-0.6c-0.4-0.3-0.7-0.7-1-1.3c-0.2-0.5-0.3-1.2-0.3-2.1V57.6c0-1.4-0.4-2.4-1.1-3c-0.7-0.6-1.6-0.9-2.6-0.9
			c-0.7,0-1.4,0.1-2,0.3c-0.6,0.2-1.1,0.4-1.5,0.6v18.1c-0.3,0.1-0.9,0.2-1.6,0.3c-0.7,0.1-1.5,0.2-2.3,0.2c-0.8,0-1.4-0.1-2.1-0.2
			c-0.6-0.1-1.1-0.3-1.5-0.6c-0.4-0.3-0.7-0.7-1-1.3c-0.2-0.5-0.3-1.2-0.3-2.1v-30c0.4-0.1,0.9-0.2,1.7-0.3c0.7-0.1,1.5-0.2,2.3-0.2
			c0.8,0,1.4,0.1,2.1,0.2c0.6,0.1,1.1,0.3,1.5,0.6s0.7,0.7,1,1.3c0.2,0.5,0.3,1.2,0.3,2.1v5.1c0.4-0.2,1.1-0.4,2.1-0.6
			c0.9-0.2,1.9-0.3,3-0.3c3.4,0,6.1,0.9,8,2.6c1.9,1.7,2.9,4.2,2.9,7.6V72.8z"/>
		<path class="st8" d="M180.2,60.3c0,2.1-0.3,4-1,5.7c-0.7,1.7-1.6,3.1-2.8,4.2c-1.2,1.1-2.6,2-4.3,2.6c-1.7,0.6-3.5,0.9-5.6,0.9
			c-2,0-3.9-0.3-5.6-0.9c-1.7-0.6-3.1-1.5-4.3-2.7c-1.2-1.2-2.1-2.6-2.8-4.2c-0.7-1.7-1-3.5-1-5.6c0-2,0.3-3.9,1-5.5
			c0.7-1.7,1.6-3.1,2.8-4.2c1.2-1.2,2.6-2,4.3-2.7c1.7-0.6,3.5-0.9,5.6-0.9c2,0,3.9,0.3,5.6,1c1.7,0.6,3.1,1.5,4.3,2.7
			c1.2,1.2,2.1,2.6,2.8,4.2C179.9,56.5,180.2,58.3,180.2,60.3z M162,60.3c0,2.1,0.4,3.7,1.2,4.8c0.8,1.1,1.9,1.7,3.4,1.7
			c1.5,0,2.6-0.6,3.4-1.7c0.8-1.1,1.2-2.7,1.2-4.8c0-2.1-0.4-3.7-1.2-4.8c-0.8-1.1-1.9-1.7-3.4-1.7c-1.5,0-2.6,0.6-3.4,1.7
			C162.4,56.6,162,58.2,162,60.3z"/>
		<path class="st8" d="M196.1,46.9c2.1,0,4,0.3,5.8,0.8c1.8,0.5,3.3,1.4,4.6,2.5c1.3,1.1,2.3,2.5,3,4.2c0.7,1.7,1.1,3.7,1.1,6
			c0,2.2-0.3,4.1-0.9,5.8c-0.6,1.7-1.5,3-2.7,4.2c-1.1,1.1-2.5,2-4.1,2.5c-1.6,0.6-3.4,0.8-5.4,0.8c-1.5,0-2.9-0.2-4.2-0.7v8.6
			c-0.3,0.1-0.9,0.2-1.7,0.3c-0.8,0.1-1.5,0.2-2.3,0.2c-0.8,0-1.4-0.1-2.1-0.2c-0.6-0.1-1.1-0.3-1.5-0.6c-0.4-0.3-0.7-0.7-0.9-1.3
			c-0.2-0.5-0.3-1.2-0.3-2.1V53.1c0-0.9,0.2-1.7,0.6-2.3c0.4-0.6,0.9-1.1,1.6-1.6c1.1-0.7,2.4-1.2,4-1.7
			C192.4,47.2,194.2,46.9,196.1,46.9z M196.3,66.7c3.6,0,5.4-2.1,5.4-6.4c0-2.2-0.4-3.8-1.3-4.9c-0.9-1.1-2.2-1.6-3.8-1.6
			c-0.7,0-1.2,0.1-1.8,0.2c-0.5,0.2-1,0.3-1.4,0.5V66c0.4,0.2,0.9,0.4,1.4,0.5C195.2,66.6,195.7,66.7,196.3,66.7z"/>
	</g>
</g>
<g id="Capa_2" class="st17">
</g>
</svg>
