<?xml version="1.0" encoding="utf-8"?>
<!-- Generator: Adobe Illustrator 26.5.0, SVG Export Plug-In . SVG Version: 6.00 Build 0)  -->
<svg version="1.1" xmlns="http://www.w3.org/2000/svg" xmlns:xlink="http://www.w3.org/1999/xlink" x="0px" y="0px"
	 viewBox="0 0 70 70" style="enable-background:new 0 0 70 70;" xml:space="preserve">
<style type="text/css">
	.st0{fill:none;}
	.st1{fill:#FADA3C;}
	.st2{fill:url(#SVGID_1_);}
	.st3{clip-path:url(#SVGID_00000145058603861249602380000013467915127033535380_);}
	.st4{fill:#FFCC33;}
	.st5{fill:#2057C6;}
	.st6{fill:#FFFFFF;stroke:#2057C6;stroke-width:10;stroke-miterlimit:10;}
	.st7{fill:none;stroke:#2057C6;stroke-width:12;stroke-linecap:round;stroke-miterlimit:10;}
	.st8{fill:#FFFFFF;}
	.st9{fill:none;stroke:#000000;stroke-width:4;stroke-linecap:square;stroke-miterlimit:10;}
	.st10{fill:#FFCC33;stroke:#FFFFFF;stroke-width:4;stroke-miterlimit:10;}
	.st11{fill:none;stroke:#FF0000;stroke-miterlimit:10;}
	.st12{fill:#FF0000;}
	.st13{fill:url(#SVGID_00000047057202207894066230000004706199972336559511_);}
	.st14{fill:none;stroke:#000000;stroke-width:0.25;stroke-miterlimit:10;}
	.st15{fill:#7A4FD6;}
	.st16{fill:url(#SVGID_00000153685278792869872810000011723728440072312484_);}
	.st17{display:none;}
	.st18{display:inline;opacity:0.5;fill:#FFCC33;}
	.st19{display:inline;}
	.st20{display:inline;fill:none;stroke:#000000;stroke-width:4;stroke-linecap:square;stroke-miterlimit:10;}
	.st21{fill:#FF5252;}
	.st22{display:inline;fill:none;stroke:#FFCC33;stroke-miterlimit:10;}
	.st23{display:inline;fill:#FF5252;}
</style>
<g id="Capa_1">
	<g>
		<g>
			<ellipse class="st1" cx="35" cy="30.4" rx="23.6" ry="9.1"/>
			<path class="st1" d="M67.6,33.5c-0.3-1.4-1.3-1.8-2-0.9c-6,7.8-22.6,10.5-31,10.7C29.3,43.3,15.4,43.5,4,32.1
				c-0.8-0.8-1.7,0-1.9,1.5c-0.5,3.3-1.2,8.5-2,13.1c-0.2,1,0,2,0.5,2.6c18.4,19.5,55.1,17.3,67.7,1.8c1.7-2,2.2-6.5,1.4-9.7
				L67.6,33.5z"/>
		</g>
		<g>
			<path class="st15" d="M33.1,25.3c-0.5-0.3-1-0.8-1.5-1.5c-0.5-0.7-0.7-1.6-0.7-2.5c0-0.9,0.3-1.6,0.8-2.1
				c0.5-0.5,1.2-0.8,2.2-1.1l3.6-0.9c1.5-0.4,2.3-1.1,2.3-2.2c0-0.6-0.3-1.1-0.8-1.5c-0.6-0.4-1.5-0.6-2.9-0.6
				c-1.2,0-2.4,0.2-3.5,0.5c-1.1,0.3-2,0.7-2.6,1.1c-0.5-0.4-1-0.9-1.3-1.4c-0.4-0.6-0.5-1.2-0.5-2c0-0.8,0.2-1.5,0.7-2.1
				c0.5-0.6,1.1-1.1,1.9-1.5c0.8-0.4,1.8-0.7,2.9-0.8c1.1-0.2,2.3-0.3,3.7-0.3c3.6,0,6.3,0.8,8.1,2.4c1.8,1.6,2.8,3.7,2.8,6.3
				c0,4.9-3.4,8-10.3,9.3L33.1,25.3z M31.6,31.3c0-1.2,0.4-2.3,1.2-3.1c0.8-0.8,1.8-1.2,3.2-1.2s2.4,0.4,3.2,1.2
				c0.8,0.8,1.2,1.8,1.2,3.1c0,1.2-0.4,2.3-1.2,3.1c-0.8,0.8-1.8,1.2-3.2,1.2s-2.4-0.4-3.2-1.2C32,33.6,31.6,32.5,31.6,31.3z"/>
		</g>
	</g>
</g>
<g id="Capa_2" class="st17">
</g>
</svg>
