<?xml version="1.0" encoding="utf-8"?>
<!-- Generator: Adobe Illustrator 26.5.0, SVG Export Plug-In . SVG Version: 6.00 Build 0)  -->
<svg version="1.1" xmlns="http://www.w3.org/2000/svg" xmlns:xlink="http://www.w3.org/1999/xlink" x="0px" y="0px"
	 viewBox="0 0 210 50" style="enable-background:new 0 0 210 50;" xml:space="preserve">
<style type="text/css">
	.st0{fill:none;}
	.st1{fill:#FADA3C;}
	.st2{fill:url(#SVGID_1_);}
	.st3{clip-path:url(#SVGID_00000172405725416434909140000000684895066791216268_);}
	.st4{fill:#FFCC33;}
	.st5{fill:#2057C6;}
	.st6{fill:#FFFFFF;stroke:#2057C6;stroke-width:10;stroke-miterlimit:10;}
	.st7{fill:none;stroke:#2057C6;stroke-width:12;stroke-linecap:round;stroke-miterlimit:10;}
	.st8{fill:#FFFFFF;}
	.st9{fill:none;stroke:#000000;stroke-width:4;stroke-linecap:square;stroke-miterlimit:10;}
	.st10{fill:#FFCC33;stroke:#FFFFFF;stroke-width:4;stroke-miterlimit:10;}
	.st11{fill:none;stroke:#FF0000;stroke-miterlimit:10;}
	.st12{fill:#FF0000;}
	.st13{fill:url(#SVGID_00000152961896931748853030000003512615943472987776_);}
	.st14{fill:none;stroke:#000000;stroke-width:0.25;stroke-miterlimit:10;}
	.st15{fill:#7A4FD6;}
	.st16{fill:url(#SVGID_00000025414916715462966280000011114741023770981030_);}
	.st17{display:none;}
	.st18{display:inline;opacity:0.5;fill:#FFCC33;}
	.st19{display:inline;}
	.st20{display:inline;fill:none;stroke:#000000;stroke-width:4;stroke-linecap:square;stroke-miterlimit:10;}
	.st21{fill:#FF5252;}
	.st22{display:inline;fill:none;stroke:#FFCC33;stroke-miterlimit:10;}
	.st23{display:inline;fill:#FF5252;}
</style>
<g id="Capa_1">
	<g>
		<g>
			<ellipse class="st1" cx="35" cy="16.5" rx="16.8" ry="6.5"/>
			<path class="st1" d="M58.3,18.7c-0.2-1-0.9-1.3-1.4-0.7c-4.3,5.6-16.1,7.5-22.1,7.6c-3.8,0.1-13.7,0.2-21.9-7.9
				c-0.5-0.5-1.2,0-1.4,1.1c-0.3,2.3-0.9,6.1-1.4,9.3c-0.1,0.7,0,1.5,0.4,1.8c13.1,14,39.3,12.3,48.3,1.3c1.2-1.5,1.6-4.6,1-7
				L58.3,18.7z"/>
			<path class="st8" d="M84.9,13.6c-1.7-1.4-4.2-2.1-7.5-2.1c-1,0-2.1,0.1-3.1,0.2c-1,0.1-1.9,0.3-2.7,0.6c-0.5,0.2-0.8,0.4-1.1,0.7
				c-0.3,0.3-0.4,0.7-0.4,1.2v16.7c0,0.6,0.1,1.1,0.2,1.5c0.1,0.4,0.4,0.7,0.6,0.9c0.3,0.2,0.6,0.4,1,0.4s0.9,0.1,1.4,0.1
				c0.5,0,1.1,0,1.6-0.1c0.6-0.1,1-0.1,1.2-0.2v-6.5h2.5c1.4,0,2.7-0.2,3.8-0.5c1.1-0.4,2-0.9,2.7-1.6c0.7-0.7,1.3-1.5,1.6-2.4
				c0.4-0.9,0.5-2,0.5-3.1C87.4,16.9,86.6,15,84.9,13.6z M80.3,21.3C79.8,21.8,79,22,78,22h-1.9v-5.5c0.3,0,0.5-0.1,0.8-0.1
				c0.2,0,0.6,0,0.9,0c1.1,0,1.9,0.2,2.4,0.7c0.6,0.5,0.8,1.2,0.8,2.1C81.1,20.2,80.9,20.9,80.3,21.3z"/>
			<path class="st8" d="M103.8,17.9c-0.7-0.7-1.6-1.2-2.7-1.6c-1-0.4-2.2-0.6-3.4-0.6c-1.1,0-2.2,0.2-3.3,0.5
				c-1.1,0.3-2,0.9-2.8,1.6c-0.8,0.7-1.5,1.6-2,2.8c-0.5,1.1-0.8,2.5-0.8,4c0,1.6,0.3,3,0.8,4.1c0.5,1.2,1.2,2.2,2.1,2.9
				c0.9,0.8,1.9,1.4,3.1,1.8c1.2,0.4,2.5,0.6,3.9,0.6c0.8,0,1.7-0.1,2.7-0.2s1.8-0.4,2.6-0.8c1-0.5,1.5-1.3,1.5-2.4
				c0-0.5-0.1-0.9-0.4-1.3c-0.3-0.4-0.6-0.8-1-1c-0.5,0.3-1.2,0.6-2.1,0.9c-0.9,0.2-1.8,0.4-2.7,0.4c-1,0-2-0.2-2.8-0.6
				c-0.8-0.4-1.3-1-1.6-1.8l8.8-1.3c0.8-0.1,1.4-0.4,1.9-0.8c0.4-0.4,0.7-1,0.7-1.8c0-1.1-0.2-2.1-0.6-3S104.5,18.6,103.8,17.9z
				 M94.4,23.3c0-0.4,0.1-0.8,0.2-1.1c0.1-0.4,0.3-0.7,0.6-1c0.3-0.3,0.6-0.5,1-0.7c0.4-0.2,0.9-0.3,1.5-0.3c0.9,0,1.5,0.2,2,0.7
				c0.4,0.5,0.7,0.9,0.8,1.4L94.4,23.3z"/>
			<path class="st8" d="M118.3,22.3c0.6,0,1.1-0.2,1.5-0.5c0.4-0.4,0.5-1,0.5-1.8c0-0.5-0.1-0.9-0.2-1.3c-0.1-0.4-0.3-0.7-0.4-1
				h-4.6v-2.3c0-1.2-0.3-2-0.9-2.3c-0.6-0.4-1.4-0.5-2.4-0.5c-0.5,0-1.1,0-1.5,0.1c-0.5,0.1-0.9,0.2-1.1,0.2v15.2
				c0,2.1,0.6,3.7,1.7,4.6c1.1,0.9,2.7,1.4,4.8,1.4c1.7,0,2.9-0.3,3.6-0.9c0.7-0.6,1-1.3,1-2.2c0-0.4-0.1-0.8-0.2-1.2
				c-0.2-0.3-0.3-0.6-0.5-0.9c-0.3,0.1-0.6,0.2-1,0.2c-0.4,0.1-0.7,0.1-1.1,0.1c-0.7,0-1.3-0.1-1.6-0.4c-0.4-0.3-0.6-0.7-0.6-1.3
				v-5.4H118.3z"/>
			<path class="st8" d="M131.5,22.7l-1.1-0.2c-0.7-0.1-1.1-0.3-1.3-0.5c-0.2-0.2-0.4-0.4-0.4-0.6c0-0.4,0.2-0.7,0.6-0.8
				c0.4-0.2,1-0.3,1.8-0.3c0.4,0,0.8,0,1.3,0.1c0.5,0.1,0.9,0.2,1.4,0.3c0.4,0.1,0.9,0.2,1.2,0.4c0.4,0.1,0.7,0.3,0.9,0.4
				c0.3-0.3,0.6-0.6,0.8-1c0.2-0.4,0.3-0.9,0.3-1.4c0-0.6-0.2-1.1-0.5-1.5c-0.3-0.4-0.8-0.8-1.3-1c-0.6-0.3-1.2-0.5-2-0.6
				c-0.8-0.1-1.6-0.2-2.5-0.2c-1.2,0-2.2,0.1-3.2,0.4c-1,0.3-1.8,0.6-2.5,1.1c-0.7,0.5-1.2,1.1-1.6,1.8c-0.4,0.7-0.6,1.5-0.6,2.4
				c0,1.6,0.5,2.8,1.5,3.7c1,0.9,2.5,1.5,4.6,1.9l1.1,0.2c0.7,0.1,1.1,0.3,1.4,0.5c0.3,0.2,0.4,0.4,0.4,0.8c0,0.4-0.2,0.6-0.6,0.9
				c-0.4,0.2-1,0.3-1.7,0.3c-1.2,0-2.2-0.1-3.1-0.4c-0.9-0.3-1.7-0.6-2.4-1c-0.3,0.3-0.6,0.6-0.9,1c-0.2,0.4-0.4,0.9-0.4,1.4
				c0,0.6,0.2,1.1,0.5,1.6c0.3,0.4,0.8,0.8,1.4,1.1c0.6,0.3,1.3,0.5,2.2,0.7c0.9,0.1,1.8,0.2,2.8,0.2c2.6,0,4.6-0.5,6-1.5
				c1.3-1,2-2.4,2-4.2c0-1.4-0.5-2.6-1.4-3.5C135.4,24,133.8,23.3,131.5,22.7z"/>
			<path class="st8" d="M150.3,15.8c-0.8,0-1.4,0.1-2.1,0.2c-0.6,0.2-1.1,0.3-1.4,0.4V13c0-0.6-0.1-1.1-0.2-1.4
				c-0.2-0.4-0.4-0.7-0.7-0.9c-0.3-0.2-0.6-0.4-1-0.4c-0.4-0.1-0.9-0.1-1.4-0.1c-0.5,0-1,0-1.5,0.1c-0.5,0.1-0.9,0.1-1.2,0.2V31
				c0,0.6,0.1,1.1,0.2,1.4c0.2,0.4,0.4,0.7,0.7,0.9c0.3,0.2,0.6,0.4,1,0.4c0.4,0.1,0.9,0.1,1.4,0.1c0.5,0,1.1,0,1.6-0.1
				c0.5-0.1,0.9-0.1,1.1-0.2V21.1c0.3-0.2,0.6-0.3,1-0.4c0.4-0.1,0.9-0.2,1.3-0.2c0.7,0,1.3,0.2,1.8,0.6c0.5,0.4,0.7,1.1,0.7,2V31
				c0,0.6,0.1,1.1,0.2,1.4c0.2,0.4,0.4,0.7,0.7,0.9c0.3,0.2,0.6,0.4,1,0.4s0.9,0.1,1.4,0.1c0.5,0,1.1,0,1.6-0.1s0.9-0.1,1.1-0.2
				V22.8c0-2.3-0.7-4.1-2-5.2C154.4,16.4,152.6,15.8,150.3,15.8z"/>
			<path class="st8" d="M176.7,18.3c-0.8-0.8-1.8-1.4-2.9-1.8c-1.1-0.4-2.4-0.7-3.8-0.7c-1.4,0-2.7,0.2-3.8,0.6s-2.1,1-2.9,1.8
				c-0.8,0.8-1.4,1.8-1.9,2.9c-0.4,1.1-0.7,2.4-0.7,3.8c0,1.4,0.2,2.7,0.7,3.8c0.4,1.1,1.1,2.1,1.9,2.9c0.8,0.8,1.8,1.4,2.9,1.8
				s2.4,0.6,3.8,0.6c1.4,0,2.7-0.2,3.8-0.6c1.1-0.4,2.1-1,2.9-1.8c0.8-0.8,1.4-1.7,1.9-2.9c0.4-1.1,0.7-2.5,0.7-3.9
				c0-1.4-0.2-2.6-0.7-3.8C178.1,20.1,177.5,19.1,176.7,18.3z M172.3,28.2c-0.5,0.8-1.3,1.2-2.3,1.2c-1,0-1.8-0.4-2.3-1.2
				c-0.6-0.8-0.8-1.9-0.8-3.3c0-1.4,0.3-2.5,0.8-3.3c0.5-0.8,1.3-1.2,2.3-1.2s1.8,0.4,2.3,1.2c0.5,0.8,0.8,1.9,0.8,3.3
				S172.8,27.5,172.3,28.2z"/>
			<path class="st8" d="M199.3,20.9c-0.5-1.1-1.2-2.1-2.1-2.9c-0.9-0.8-1.9-1.3-3.1-1.7c-1.2-0.4-2.5-0.5-4-0.5
				c-1.3,0-2.6,0.1-3.7,0.4c-1.1,0.3-2,0.7-2.7,1.1c-0.5,0.3-0.8,0.7-1.1,1.1c-0.3,0.4-0.4,0.9-0.4,1.6v17c0,0.6,0.1,1.1,0.2,1.4
				c0.1,0.4,0.4,0.7,0.6,0.9c0.3,0.2,0.6,0.4,1,0.4c0.4,0.1,0.9,0.1,1.4,0.1c0.5,0,1.1,0,1.6-0.1c0.5-0.1,0.9-0.2,1.1-0.2v-5.9
				c0.9,0.3,1.8,0.5,2.8,0.5c1.3,0,2.6-0.2,3.7-0.6c1.1-0.4,2-1,2.8-1.7c0.8-0.8,1.4-1.7,1.8-2.9c0.4-1.1,0.6-2.5,0.6-4
				C200,23.4,199.8,22,199.3,20.9z M190.2,29.3c-0.4,0-0.7,0-1.1-0.1c-0.3-0.1-0.6-0.2-0.9-0.4V21c0.3-0.1,0.6-0.3,0.9-0.4
				c0.4-0.1,0.8-0.2,1.2-0.2c1.1,0,2,0.4,2.6,1.1c0.6,0.7,0.9,1.9,0.9,3.4C193.8,27.9,192.6,29.3,190.2,29.3z"/>
		</g>
		<rect class="st0" width="210" height="50"/>
	</g>
</g>
<g id="Capa_2" class="st17">
</g>
</svg>
